<svg xmlns="http://www.w3.org/2000/svg" viewBox="0 0 13.53 17.7" width="13.53" height="17.7"><defs><style>.cls-1{fill:#e8b943;}</style></defs><path class="cls-1" d="M8.33,16a1,1,0,0,1-.74-1.68c.14-.15.27-.32.41-.49l.18-.23a1,1,0,0,1,1.56,1.25l-.17.22c-.17.21-.33.41-.5.6A1,1,0,0,1,8.33,16Z"/><path class="cls-1" d="M6.76,17.7a1,1,0,0,1-.7-.29C5.81,17.16,0,11.32,0,6.77a6.77,6.77,0,1,1,13.53,0,9.46,9.46,0,0,1-1.18,4.1,1,1,0,1,1-1.74-1,7.48,7.48,0,0,0,.92-3.19A4.77,4.77,0,0,0,2,6.77C2,9.86,6,14.47,7.47,16a1,1,0,0,1,0,1.41A1,1,0,0,1,6.76,17.7Z"/><path class="cls-1" d="M6.76,9.33A2.65,2.65,0,1,1,9.41,6.68a1,1,0,0,1-2,0,.65.65,0,1,0-.65.65,1,1,0,0,1,0,2Z"/></svg>