<svg xmlns="http://www.w3.org/2000/svg" viewBox="0 0 135.75 135.73" width="135.73" height="135.73"><defs><style>.cls-1{fill:#d39596;}</style></defs><rect class="cls-1" x="-25.22" y="73.12" width="174.66" height="1" transform="translate(-33.87 65.48) rotate(-45)"/><path class="cls-1" d="M80.76,45.82a.91.91,0,0,1-.82.92.87.87,0,0,1-1-.7.93.93,0,0,1,1.84-.22Z"/><path class="cls-1" d="M132.32,11.76a.71.71,0,0,1-1.41.16.68.68,0,0,1,.63-.73A.71.71,0,0,1,132.32,11.76Z"/><path class="cls-1" d="M132.32,11.76a.71.71,0,0,1-1.41.16.68.68,0,0,1,.63-.73A.71.71,0,0,1,132.32,11.76Z"/><path class="cls-1" d="M96.8,8.21a20.48,20.48,0,0,1-4.44.58c.34.57,4.48-.2,4.48-.2l0,.27c-2.25.54-1.79,1.2-1.79,1.2-1.08-.36-1.78,1.15-1.78,1.15.06-.89-.71-.41-.71-.41.1-.51-.41-.23-.41-.23,0-.21-.47-.22-.47-.22a5.31,5.31,0,0,1-1.78.27c.28-.42-1.18-.25-1.18-.25.45-.38.06-.44.06-.44a3.21,3.21,0,0,1-.75-.3.9.9,0,0,0-.68-.14,2.35,2.35,0,0,1,1.48-.94A2.09,2.09,0,0,1,89,8a1.15,1.15,0,0,0,.12-.9,1.58,1.58,0,0,0,2.18.35c.36-.21-.13-.59-.13-.59A2.34,2.34,0,0,1,92.48,7c.18.15.48-.11.48-.11.52.65.8.68.8.68a4.14,4.14,0,0,0,1.41-.17,2.24,2.24,0,0,1,.75.29,2.78,2.78,0,0,0,.8.29Z"/><path class="cls-1" d="M113.86,15.42a6.73,6.73,0,0,1,2.4-1.05c.3-.25-.14-.2-.14-.2A7.92,7.92,0,0,0,113,15.3c-8.33-.77-11.13-5.82-11.13-5.82a62.87,62.87,0,0,1,12.4,2.65,39.69,39.69,0,0,0,10,2.12,10.41,10.41,0,0,1-2.84.11c-.54.07-.07.29-.07.29a17.2,17.2,0,0,0,4,.29C116.05,16.32,113.86,15.42,113.86,15.42ZM99.12,9.7a5.76,5.76,0,0,1,2.23-.16C102.63,12,107,14,107,14A18,18,0,0,1,99.12,9.7M87.54,20a14.93,14.93,0,0,0,.57,5.76l-.22,0a.75.75,0,0,0-.31.1A13.89,13.89,0,0,1,87.05,20,8,8,0,0,1,90,14.52,11.15,11.15,0,0,0,87.54,20m3.95,5.52a14.65,14.65,0,0,0-1.84,3l.17.09.36-.21a25.14,25.14,0,0,0,4.65,1.65c-.49.55-5-1.28-5-1.28l-.07.34c-.21-.41-.34-.62-.34-.62s-.07-.1-.08-.15c.33-.48,1.69-2.95,2.14-2.84m-1,6.16a12.84,12.84,0,0,1,2,8.28s-.4,4.94-5.17,5.06a6.16,6.16,0,0,0,1.36-2,1.87,1.87,0,0,0,1.6-.41,3.9,3.9,0,0,0,1.37-1.92s.06-.45-.23-.08a7.42,7.42,0,0,1-1.17,1.67,1.79,1.79,0,0,1-1.44.39,28.75,28.75,0,0,0,1.63-3.81c.06,0,.76-4.76.08-7.21m-12,15.71c.29.13.58.26.81.34a2.13,2.13,0,0,1-.81-.34m55-40.67c-2.74.1-2.85,1.93-2.85,1.93,0,2.47,2,2.34,2,2.34,2.18-.21,1.66-1.79,1.66-1.79a1.28,1.28,0,0,0-1.54-1c-1.38.43-.52,1.65-.52,1.65.35.18.31-.2.31-.2a1.06,1.06,0,0,1-.22-.85c1.08-.68,1.46.21,1.46.21.53.81-.43,1.53-.43,1.53-2,.57-2.32-1.1-2.32-1.1-.61-1.85,1.7-2.29,1.7-2.29,1.85-.21,2.27,1,2.27,1,1.53,2.73-2.82,4.51-2.82,4.51a11.5,11.5,0,0,1-1.95.18,15.6,15.6,0,0,0-2.42-2.3c.52-.28,2.79,2.2,2.79,2.2l.14-.24c-1.16-1.45-.54-1.74-.54-1.74-.91-.23-.58-1.69-.58-1.69-.42.7-.66,0-.66,0-.17.46-.39,0-.39,0-.14.18-.39-.06-.39-.06-.77-1-1-1-1-1,0,.49-.87-.34-.87-.34.11.48-.17.4-.17.4a1.24,1.24,0,0,0-.61-.09A.5.5,0,0,1,125,7.9a2,2,0,0,0,.43,1.37,2.2,2.2,0,0,0-.16.46,1.66,1.66,0,0,1-.35.76,1.06,1.06,0,0,1,1.56.69c.15.31-.34.37-.34.37A1.51,1.51,0,0,0,127,12c.16,0,.25.3.25.3.63-.3.86-.16.86-.16a2.29,2.29,0,0,1,.68.58,3.44,3.44,0,0,1-.9-.17c-4.67-.93-5.3-4.37-5.3-4.37a3.7,3.7,0,0,1,3-4.2c.31-.2,0-.33,0-.33a4.08,4.08,0,0,0-3.4,3.26c-.43,3.35,3,5.14,3,5.14a11,11,0,0,0,5,1.22,7.48,7.48,0,0,1-3.22.16c-.49.06-.14.24-.14.24a3,3,0,0,0,.94.05c-3.76.67-11.1-1.43-11.1-1.43-10.83-3.83-15.1-3.71-15.1-3.71a2.54,2.54,0,0,1,.32-2.34,2.13,2.13,0,0,1,2-.41c.49-.06,0-.28,0-.28a2.35,2.35,0,0,0-2.31.44A3.12,3.12,0,0,0,101,8.55a9.9,9.9,0,0,0-2.62.14,4.62,4.62,0,0,1-1.2-5.46A4.63,4.63,0,0,1,101.59.45a3.75,3.75,0,0,1,1.75.84,2.71,2.71,0,0,1,.9,1.59c0,1.65-1.9,1.6-1.9,1.6a1.62,1.62,0,0,1-1.44-1.09,1,1,0,0,1,.59-1.06c1.43-.39,1.39.66,1.39.66-.35.7-.8.15-.8.15-.43-.33-.32.15-.32.15a.86.86,0,0,0,1.23.18A.92.92,0,0,0,102.54,2a1.49,1.49,0,0,0-1.72.31,1.43,1.43,0,0,0-.22,1.34,1.91,1.91,0,0,0,1.78,1.17c1.92-.06,2.15-1.36,2.15-1.36C105,2,103.32.69,103.32.69,101.45-.79,99.08.58,99.08.58a5.75,5.75,0,0,0-2.9,5.24l.06.48c-.82-.89-.42-1.21-.42-1.21-.77-.07-.66-1.41-.66-1.41-.25.64-.59.07-.59.07-.12.4-.33,0-.33,0-.09.18-.33,0-.33,0a3.17,3.17,0,0,0-1-.65c0,.38-.79-.18-.79-.18.16.42-.12.34-.12.34a1.1,1.1,0,0,0-.55,0A.49.49,0,0,1,91,3.19a1.61,1.61,0,0,0,.57,1.14c-.08.23-.12.4-.12.4a1,1,0,0,1-.25.69.94.94,0,0,1,1.43.43c.14.26-.29.37-.29.37a1.19,1.19,0,0,0,.81.29c.15-.08.24.24.24.24.51-.33.74-.25.74-.25a2.61,2.61,0,0,1,.78.57,1.82,1.82,0,0,0,.56,0,1,1,0,0,1,.55,0l.1-.12a12.08,12.08,0,0,0-2.53-1.84c.36-.26,2.24,1.27,2.61,1.56a6.36,6.36,0,0,0,1.08,2.18A15.25,15.25,0,0,0,92.42,12c-4.25.83-6,6.48-6,6.48a11.39,11.39,0,0,0,.72,7.55.72.72,0,0,0-.15.56.93.93,0,0,0,.8.73,10,10,0,0,0,.81,1.28,1.45,1.45,0,0,0,.2.25v.05A12.93,12.93,0,0,0,88,32.11c-.48-.33.49-3.3.49-3.3l-.22,0c-.64,1.56-1.19,1.13-1.19,1.13.21.86-1.13,1.12-1.13,1.12.79.13.3.63.3.63.43,0,.2.36.2.36.23,0,.16.42.16.42a3.92,3.92,0,0,0-.34,1.25c.36-.15.16.91.16.91.35-.26.45.06.45.06a1.65,1.65,0,0,0,.23.58.52.52,0,0,1,.06.54,1.49,1.49,0,0,0,.94-.94,2.14,2.14,0,0,0,.44,0,1,1,0,0,1,.77.07,1.08,1.08,0,0,1-.14-1.69c.19-.24.46.17.46.17a1.53,1.53,0,0,0-.06-1c-.13-.15.12-.35.12-.35-.55-.48-.52-.7-.52-.7a3,3,0,0,1,.26-1,1.85,1.85,0,0,0-.18-.59,1,1,0,0,1-.16-.42c1.86,3.19,1.16,7.45,1.16,7.45A14.75,14.75,0,0,1,88,42.6a1.16,1.16,0,0,1-.65-.91c-.2-.31-.17,0-.17,0a1.59,1.59,0,0,0,.63,1.08,8,8,0,0,1-1.76,2.29,4.91,4.91,0,0,1-2.67-1.61,4.46,4.46,0,0,1-.55-2.79c0-.61-.24-.19-.24-.19a4.32,4.32,0,0,0,.54,3.18,5.23,5.23,0,0,0,2.57,1.73c-4.24,3.63-7.66.68-7.66.68-3.1-2.92-.82-5.5-.82-5.5,2.45-2,4.07-.37,4.07-.37a2.05,2.05,0,0,1,.12,2.84,1.52,1.52,0,0,1-2.21-.12,1.14,1.14,0,0,1,.24-1.24c.06-.39-.19-.2-.19-.2-1.24,1.58.42,2.2.42,2.2a2.36,2.36,0,0,0,2.14-.52,2.49,2.49,0,0,0-.47-3.52,3.71,3.71,0,0,0-3.88.19c-2.54,1.78-1.41,4.83-1.41,4.83a5.19,5.19,0,0,0,2.28,2.53c-.63.24-1.28-.61-1.28-.61.25.68-.44.49-.44.49.1.37-.34.31-.34.31,0,.17-.3.26-.3.26a3.3,3.3,0,0,0-1.3.15c.31.29-.78.42-.78.42.41.23.16.37.16.37a1.66,1.66,0,0,0-.45.38.62.62,0,0,1-.52.28,1.58,1.58,0,0,0,1.26.4.71.71,0,0,0,.2.36,1.17,1.17,0,0,1,.31.74A1.14,1.14,0,0,1,76.37,50c.28.07.06.49.06.49a1.81,1.81,0,0,0,.88-.38c.1-.12.38-.05.38-.05.2-.63.41-.71.41-.71a3.66,3.66,0,0,1,1-.17,1.61,1.61,0,0,0,.45-.39,2.1,2.1,0,0,1,.5-.38l0-.17a14.59,14.59,0,0,0-3.29.5C76.93,48.25,80,48,80,48v-.05a6.25,6.25,0,0,0,1.83.11c-5,2.13-6,4.29-6,4.29a3.28,3.28,0,0,0-1,4.34,4.65,4.65,0,0,1,.76,3.21c-.2,1.5-1.31,1.41-1.31,1.41-.66,0-.61-1-.61-1-.28-.46-.38.05-.38.05.09,1.2.81,1.28.81,1.28,1.28.12,1.51-.73,1.51-.73a4.15,4.15,0,0,0,.24-2.56,5.83,5.83,0,0,0-.78-2,2.75,2.75,0,0,1-.2-2.12A3.3,3.3,0,0,0,76,56.49a2.47,2.47,0,0,0,2,.75,2.59,2.59,0,0,0,1.62-.68c.16-.52-.35-.24-.35-.24a1.87,1.87,0,0,1-1.87.44c-1-.1-1.77-1.43-1.77-1.43a2.89,2.89,0,0,1,.52-2.59c.47-1.6,3.31-3.14,5.39-4.1-.09.17-.17.35-.33.42,0,0-.1.12-.6,0,0,0,0,.22-.14.23,0,0-.42.16-.5.45,0,0,.33,0,.3.18a.69.69,0,0,1-.91.66,1.13,1.13,0,0,1,.38.45l.2.3a1.17,1.17,0,0,0-.05.94.42.42,0,0,1,.3-.2.93.93,0,0,0,.43-.16s.14-.12.19.26c0,0,.42-.66.51-.34,0,0,.16-.07.51-.77,0,0,.15-.19.27-.09s.07-.34.27,0c0,0,0-.5.42-.11,0,0-.44-.93.09-1.16,0,0-.46-.11.07-1.22l-.23-.08s-1.09,1.94-1.43,1.82a9,9,0,0,0,1.25-2h0c.79-.32,1.26-.48,1.26-.48a5.54,5.54,0,0,0,3.1-2.18,5.48,5.48,0,0,0,5.16-2.76c2.91-5.17-1.89-12.3-1.89-12.3-.5-.93-1.81-2.75-1.81-2.75a1.14,1.14,0,0,1-.16-.36.64.64,0,0,0,.42-.22,9.7,9.7,0,0,0,.61,1.41,13.39,13.39,0,0,0,7.09,6.14c.56.1.08-.28.08-.28a13.25,13.25,0,0,1-6.51-5.33C92.27,30.28,91.64,31,91.64,31c1.3-.21,1.75,1.77,1.75,1.77.09-1.06.9-.33.9-.33,0-.65.52-.22.52-.22.07-.29.59-.13.59-.13a5.37,5.37,0,0,0,1.89.71c-.23-.58,1.32,0,1.32,0-.51-.54-.07-.54-.07-.54A2.32,2.32,0,0,0,99.4,32a.74.74,0,0,1,.77,0,3.11,3.11,0,0,0-1.44-1.48,2.08,2.08,0,0,0-.08-.65,1.53,1.53,0,0,1,0-1.1,1.66,1.66,0,0,1-2.49-.09c-.36-.29.26-.64.26-.64A2.32,2.32,0,0,0,95,28c-.21.13-.52-.21-.52-.21-.69.68-1,.61-1,.61a5,5,0,0,1-1.54-.53,1.7,1.7,0,0,0-.86.16H91a2,2,0,0,1,.51-.78s.15-.18.82-.1c0,0,0-.33.18-.35a1.73,1.73,0,0,0,.74-.69s-.49.06-.42-.28a1.16,1.16,0,0,1,1.29-1.14,1.21,1.21,0,0,1-.51-.6,2.08,2.08,0,0,0-.27-.41,2.12,2.12,0,0,0,.11-1.44.62.62,0,0,1-.46.33,1.58,1.58,0,0,0-.57.29s-.25.19-.25-.3c0,0-.6,1-.76.53,0,0-.21.13-.74,1.18,0,0-.24.31-.36.21s-.11.45-.37.1c0,0-.08.72-.64.19,0,0,.65,1.29-.12,1.77,0,0,.62.14,0,1.6-.16-.43-.32-.85-.47-1.21a.74.74,0,0,0,0-.33.88.88,0,0,0-.34-.57c-1.17-3.87-.56-6.08-.56-6.08a13.88,13.88,0,0,1,3.54-5.86,6.18,6.18,0,0,0,.19,5.8c2.74,3.63,6.16,2.4,6.16,2.4a5.5,5.5,0,0,0,3.88-3.42,3.57,3.57,0,0,0-2-4.66,4.05,4.05,0,0,0-3.24,0,3.3,3.3,0,0,0-2.11,3.1,2.32,2.32,0,0,0,1.41,2.14,3,3,0,0,0,2.83-.22,2,2,0,0,0,1-2.26,2,2,0,0,0-1.55-1.47,1.3,1.3,0,0,0-1.45.72c-.32.59.43.89.43.89.32-.1,0-.28,0-.28a.41.41,0,0,1-.19-.69c.57-.78,1.52-.18,1.52-.18A1.61,1.61,0,0,1,99,17.84c-.77,1.85-3,1.35-3,1.35a2.21,2.21,0,0,1-1.3-3,3.44,3.44,0,0,1,2.21-1.8,3.83,3.83,0,0,1,3.33.81c1.71,1.39.72,3.71.72,3.71a5,5,0,0,1-6.46,2.52c-3.52-1.4-2.52-5.47-2.52-5.47a9.06,9.06,0,0,1,5.77-6.07,14.94,14.94,0,0,0,7.09,4.22A43.3,43.3,0,0,0,120,16.18c9.12-.42,14-3.74,14-3.74a3.61,3.61,0,0,0,1.81-3.29,2.53,2.53,0,0,0-2.32-2.41"/></svg>