<svg xmlns="http://www.w3.org/2000/svg" viewBox="0 0 70 70" width="70" height="70"><defs><style>.cls-1{fill:#008015;}.cls-2{fill:#fff;fill-rule:evenodd;}</style></defs><circle class="cls-1" cx="35" cy="35" r="35"/><path class="cls-2" d="M57.27,32.85A15,15,0,0,1,54,42.56a31.83,31.83,0,0,1-4.75,4.89,82.31,82.31,0,0,1-12,8.33c-.86.5-1.79.9-2.71,1.33a1.74,1.74,0,0,1-.68.16c-.59,0-.9-.26-.83-.93s.19-1.25.3-1.87a6.85,6.85,0,0,0,.11-2.12,1.34,1.34,0,0,0-.79-1,5.63,5.63,0,0,0-1.87-.53,25.67,25.67,0,0,1-5.72-1.51A22,22,0,0,1,19,45.75a16.5,16.5,0,0,1-5.89-9.18,13.61,13.61,0,0,1-.31-4A15.1,15.1,0,0,1,16.29,24a21.1,21.1,0,0,1,8.21-6,26.38,26.38,0,0,1,9-2,26.31,26.31,0,0,1,13.76,2.88,19.27,19.27,0,0,1,7.94,7.29A13.92,13.92,0,0,1,57.27,32.85Zm-22.33.07,4.39,5.84a1.25,1.25,0,0,0,1,.57A1.23,1.23,0,0,0,41.58,38V29.64a1.41,1.41,0,0,0,0-.2,1.22,1.22,0,0,0-2-.78,1.33,1.33,0,0,0-.4,1v5L39,34.5l-2.85-3.79c-.46-.6-.91-1.21-1.36-1.81a1.21,1.21,0,0,0-1.24-.54,1.1,1.1,0,0,0-.92.78,2.22,2.22,0,0,0-.08.63q0,4.08,0,8.15a2,2,0,0,0,.08.6,1.22,1.22,0,0,0,1.3.81,1.26,1.26,0,0,0,1-1.19c0-1,0-2,0-3.06Zm10.54-2.24h.31c1,0,2,0,2.94,0a1.17,1.17,0,0,0,0-2.33q-2.25,0-4.5,0a1.12,1.12,0,0,0-1.13,1.11q0,4.36,0,8.73a1.15,1.15,0,0,0,1.14,1.14q2.25,0,4.5,0a1.17,1.17,0,0,0,1.14-1.12A1.12,1.12,0,0,0,48.78,37c-1,0-2,0-3,0h-.34V35h3.19a1.18,1.18,0,0,0,1.21-1.12,1.13,1.13,0,0,0-1.15-1.22H45.48ZM23.06,37V36.6c0-2.34,0-4.69,0-7a1.19,1.19,0,0,0-1.27-1.21,1.16,1.16,0,0,0-1.13,1.25c0,2.83,0,5.65,0,8.48a1.41,1.41,0,0,0,0,.2,1.17,1.17,0,0,0,1.12,1q2.28,0,4.56,0a1.18,1.18,0,0,0,1.1-1.42A1.14,1.14,0,0,0,26.24,37C25.2,37,24.15,37,23.06,37Zm7.86-3.14V29.61a1.22,1.22,0,1,0-2.44,0c0,2.81,0,5.61,0,8.42a1.48,1.48,0,0,0,.16.64,1.22,1.22,0,0,0,1.29.63,1.28,1.28,0,0,0,1-1.21Z"/></svg>